<?xml version="1.0" ?><svg xmlns:dc="http://purl.org/dc/elements/1.1/" xmlns:cc="http://creativecommons.org/ns#" xmlns:rdf="http://www.w3.org/1999/02/22-rdf-syntax-ns#" xmlns:svg="http://www.w3.org/2000/svg" xmlns="http://www.w3.org/2000/svg" xmlns:xlink="http://www.w3.org/1999/xlink" baseProfile="full" viewBox="0 0 626.4562, 357.1650" id="matchbox">	
	<title>Matchbox-L59.0-W41.0-H41.0-20220206-232507</title>	
	<g id="base" transform="translate(0, 0)">		
			<g id="base-fold" class="fold" fill="none" stroke="#00adee" stroke-width="0.75">			
					<line x1="110.5511" y1="121.8896" x2="110.5511" y2="232.4407"/>			
			<line x1="226.7715" y1="8.5039" x2="226.7715" y2="113.3857"/>			
			<line x1="226.7715" y1="119.0550" x2="226.7715" y2="235.2754"/>			
			<line x1="226.7715" y1="240.9447" x2="226.7715" y2="345.8265"/>			
			<line x1="394.0155" y1="8.5039" x2="394.0155" y2="113.3857"/>			
			<line x1="394.0155" y1="119.0550" x2="394.0155" y2="235.2754"/>			
			<line x1="394.0155" y1="240.9447" x2="394.0155" y2="345.8265"/>			
			<line x1="226.7715" y1="119.0550" x2="394.0155" y2="119.0550"/>			
			<line x1="226.7715" y1="235.2754" x2="394.0155" y2="235.2754"/>			
			<line x1="510.2359" y1="121.8896" x2="510.2359" y2="232.4407"/>			

			</g>		
			<g id="base-cut" class="cut" fill="none" stroke="#d41a5a" stroke-width="2">			
					<line x1="2.8346" y1="121.8896" x2="2.8346" y2="232.4407"/>			
			<line x1="2.8346" y1="232.4407" x2="110.5511" y2="232.4407"/>			
			<line x1="110.5511" y1="232.4407" x2="110.5511" y2="235.2754"/>			
			<line x1="110.5511" y1="235.2754" x2="226.7715" y2="235.2754"/>			
			<line x1="226.7715" y1="235.2754" x2="226.7715" y2="240.9447"/>			
			<line x1="226.7715" y1="240.9447" x2="198.4251" y2="240.9447"/>			
			<line x1="198.4251" y1="240.9447" x2="198.4251" y2="345.8265"/>			
			<line x1="198.4251" y1="345.8265" x2="226.7715" y2="345.8265"/>			
			<line x1="226.7715" y1="345.8265" x2="226.7715" y2="351.4958"/>			
			<line x1="226.7715" y1="351.4958" x2="394.0155" y2="351.4958"/>			
			<line x1="394.0155" y1="351.4958" x2="394.0155" y2="345.8265"/>			
			<line x1="394.0155" y1="345.8265" x2="422.3619" y2="345.8265"/>			
			<line x1="422.3619" y1="345.8265" x2="422.3619" y2="240.9447"/>			
			<line x1="422.3619" y1="240.9447" x2="394.0155" y2="240.9447"/>			
			<line x1="394.0155" y1="240.9447" x2="394.0155" y2="235.2754"/>			
			<line x1="394.0155" y1="235.2754" x2="510.2359" y2="235.2754"/>			
			<line x1="510.2359" y1="235.2754" x2="510.2359" y2="232.4407"/>			
			<line x1="510.2359" y1="232.4407" x2="620.7870" y2="232.4407"/>			
			<line x1="620.7870" y1="232.4407" x2="620.7870" y2="121.8896"/>			
			<line x1="620.7870" y1="121.8896" x2="510.2359" y2="121.8896"/>			
			<line x1="510.2359" y1="121.8896" x2="510.2359" y2="119.0550"/>			
			<line x1="510.2359" y1="119.0550" x2="394.0155" y2="119.0550"/>			
			<line x1="394.0155" y1="119.0550" x2="394.0155" y2="113.3857"/>			
			<line x1="394.0155" y1="113.3857" x2="422.3619" y2="113.3857"/>			
			<line x1="422.3619" y1="113.3857" x2="422.3619" y2="8.5039"/>			
			<line x1="422.3619" y1="8.5039" x2="394.0155" y2="8.5039"/>			
			<line x1="394.0155" y1="8.5039" x2="394.0155" y2="2.8346"/>			
			<line x1="394.0155" y1="2.8346" x2="226.7715" y2="2.8346"/>			
			<line x1="226.7715" y1="2.8346" x2="226.7715" y2="8.5039"/>			
			<line x1="226.7715" y1="8.5039" x2="198.4251" y2="8.5039"/>			
			<line x1="198.4251" y1="8.5039" x2="198.4251" y2="113.3857"/>			
			<line x1="198.4251" y1="113.3857" x2="226.7715" y2="113.3857"/>			
			<line x1="226.7715" y1="113.3857" x2="226.7715" y2="119.0550"/>			
			<line x1="226.7715" y1="119.0550" x2="110.5511" y2="119.0550"/>			
			<line x1="110.5511" y1="119.0550" x2="110.5511" y2="121.8896"/>			
			<line x1="110.5511" y1="121.8896" x2="2.8346" y2="121.8896"/>			

			</g>		
	</g>	
	<g id="tray" transform="translate(TRANSLATE-TRAY$)">		
			<g id="tray-fold" class="fold" fill="none" stroke="#00adee" stroke-width="0.75">
		$TRAY-FOLD$
	</g>		
			<g id="tray-cut" class="cut" fill="none" stroke="#d41a5a" stroke-width="2">
		$TRAY-CUT$
	</g>		
			<g id="tray-labels" class="labels" fill="#75777a" stroke="none">
	</g>		
	</g>	
</svg>